<?xml version="1.0" encoding="UTF-8"?>
<svg id="Layer_1" xmlns="http://www.w3.org/2000/svg" version="1.1" viewBox="0 0 323.78 330.94">
  <!-- Generator: Adobe Illustrator 30.5.1, SVG Export Plug-In . SVG Version: 2.1.4 Build 3)  -->
  <defs>
    <style>
      .st0, .st1 {
        fill: #f8f7f3;
      }

      .st1, .st2, .st3, .st4 {
        fill-rule: evenodd;
      }

      .st2 {
        fill: #0a1c32;
      }

      .st3 {
        fill: #3b506b;
      }

      .st4 {
        fill: #152941;
      }
    </style>
  </defs>
  <path class="st2" d="M161.89,0c89.41,0,161.89,74.08,161.89,165.47s-72.48,165.47-161.89,165.47S0,256.86,0,165.47,72.48,0,161.89,0"/>
  <path class="st1" d="M161.89,3.76c87.38,0,158.21,72.4,158.21,161.71s-70.83,161.71-158.21,161.71S3.68,254.78,3.68,165.47,74.51,3.76,161.89,3.76"/>
  <path class="st2" d="M161.89,7.31c85.46,0,154.73,70.81,154.73,158.16s-69.28,158.16-154.73,158.16S7.16,252.82,7.16,165.47,76.43,7.31,161.89,7.31"/>
  <path class="st1" d="M161.89,52.18c61.21,0,110.83,50.72,110.83,113.29s-49.62,113.29-110.83,113.29-110.83-50.72-110.83-113.29,49.62-113.29,110.83-113.29"/>
  <path class="st3" d="M161.89,54.85c59.77,0,108.22,49.52,108.22,110.62s-48.45,110.62-108.22,110.62-108.22-49.52-108.22-110.62,48.45-110.62,108.22-110.62"/>
  <path class="st1" d="M72.12,148.66l58.02,2.16c-.04-.71-.06-1.42-.06-2.14s.02-1.38.06-2.06l-58.02,2.04Z"/>
  <path class="st1" d="M75.37,126.79l55.26,15.52c.25-1.45.58-2.88.99-4.26l-56.25-11.26Z"/>
  <path class="st1" d="M82.15,105.92l50.79,28.4c.52-1.24,1.1-2.43,1.74-3.59l-52.53-24.81Z"/>
  <path class="st1" d="M96.82,90.45l39.86,37.1c.79-1.13,1.64-2.21,2.55-3.23l-42.41-33.87Z"/>
  <path class="st1" d="M110.51,79.22l31,42.78c.77-.72,1.58-1.4,2.41-2.04l-33.41-40.74Z"/>
  <path class="st1" d="M121.19,72.23l23.79,46.94c1.13-.8,2.3-1.53,3.52-2.18l-27.31-44.76Z"/>
  <path class="st1" d="M140.76,64.29l11.72,50.9c1.28-.48,2.61-.88,3.96-1.19l-15.68-49.71Z"/>
  <path class="st1" d="M161.91,61.28l-1.19,52.04c.94-.08,1.9-.13,2.86-.13.43,0,.86.01,1.29.03l-2.96-51.94Z"/>
  <path class="st1" d="M182.15,63.26l-13.05,50.42c1.39.24,2.74.58,4.07.99l8.98-51.41Z"/>
  <path class="st1" d="M202.08,70.2l-24.81,46.09c1.24.59,2.44,1.26,3.6,2l21.21-48.09Z"/>
  <path class="st1" d="M214.99,77.98l-32.78,41.21c1.11.79,2.18,1.65,3.19,2.57l29.59-43.78Z"/>
  <path class="st1" d="M240.49,107.13l-48,23.62c.66,1.2,1.26,2.44,1.79,3.72l46.21-27.34Z"/>
  <path class="st1" d="M248.24,126.89l-52.78,10.89c.4,1.31.73,2.64.98,4.01l51.8-14.9Z"/>
  <path class="st1" d="M250.98,146.53l-54.02-.88c.08,1,.12,2.01.12,3.03,0,.33,0,.66-.01.98l53.91-3.13Z"/>
  <path class="st1" d="M190.21,127.15l37.63-37.74-40.26,34.52c.94,1.02,1.81,2.09,2.63,3.22"/>
  <path class="st1" d="M207.4,154.64l-8.12,6.35-5.11-4.3c.6-2.57.91-5.25.91-8.01,0-18.43-14.1-33.38-31.5-33.38s-31.5,14.94-31.5,33.38c0,.36.01.72.02,1.08l-35.35,26-12.05-6.03-29.09,16.66c.21,1.12.44,2.23.68,3.34l28.51-16.42,8.88,4.9-5.97,4.63s-.75-3.87-1.18-3.23c-.43.65-.91,4.68-.91,4.68l-18.67,17.43s31.53-20.82,31.85-20.34-1.45,3.77-.97,3.6c.48-.16,5-5.33,5.06-5.92.05-.59-1.67-.75-1.67-.75l8.34-6.56,2.52.69,10.85-10.73,9.52-7.97,5.74,3.52s-2.76,1.83-3.55,2.76c-.11.13-.26.37-.44.7-1.1,2.05-3.24,7.3-3.24,7.3,0,0,1.91-1.84,4.48-4.32,4.48-4.32,10.98-10.55,12.89-12.33,3.01-2.8,4.63-3.12,6.89-6.03s9.04-10.01,9.04-10.01l28.95,24.73,6.5,5.56,8.05-6.74,48.02,35.74-12.05-11.78s.27-2.53-.7-3.44-2.91-.11-2.91-.11l-3.12-2.58,6.35-4.09,24.76,14.19c.23-1.19.44-2.39.63-3.59l-25.71-14.79-8.29,5.22-27.34-19.01Z"/>
  <path class="st1" d="M131.53,159.03c-.38-1.33-.69-2.7-.93-4.09l-51.79,15.14,52.72-11.05Z"/>
  <path class="st1" d="M249.3,165.87l-52.47-12.85c-.15,1.32-.37,2.63-.66,3.9l53.13,8.95Z"/>
  <path class="st1" d="M105.37,197.81s35.46-32.87,36.59-33.68,1.88-1.29,1.88-1.29c0,0,8.39-10.33,12.27-14.64,3.87-4.3,7.1-7.59,7.1-7.59l.48,11.89,1.72,2.37-38.79,38.14-3.98-4.79-17.27,9.59Z"/>
  <path class="st1" d="M170.74,166.17l3.71,11.68s8.29,3.5,9.31,5c1.02,1.51,1.45,4.47,1.45,4.47l17.7,11.03-18.08-20.71-1.24,1.18-12.85-12.65Z"/>
  <path class="st1" d="M220.48,183.71l-17.92-15.5,4.71-3.42s.27,1.86.97,2.93c.7,1.08,12.24,15.99,12.24,15.99"/>
  <path class="st1" d="M110.51,262.85c15.29,8.44,32.78,13.24,51.38,13.24,1.4,0,2.8-.03,4.19-.08,0,0,24.97-20.38,29.39-27.59,4.41-7.21,4.09-13.66-3.39-19.85s-25.34-9.85-37.12-12.59c-9.42-2.19-13.43-6.33-3.09-9.61,6.55-2.08,19.15-3.79,24.34-4.46,7.69-1,22.11-6.19,7.38-11.55,0,0,2.5,1.99,3.24,3.27s.64,2.7-2.61,3.91c-3.26,1.21-21.58,3.17-33.2,4.95-11.62,1.78-22.54,6.62-19.1,12.86s21.52,9.15,28.41,14.9c6.89,5.76,1.83,9.47-15.33,16.73-17.17,7.26-34.49,15.87-34.49,15.87"/>
  <path class="st4" d="M192.07,228.56c7.48,6.19,7.8,12.64,3.39,19.85-4.41,7.21-29.39,27.59-29.39,27.59,39.75-1.54,74.01-25.01,91.55-58.9,0,0-12.93-2.53-36.5-2.1s-42.33,7.12-42.33,7.12c5.42,1.8,10.22,3.91,13.28,6.44"/>
  <path class="st2" d="M144.99,246.98c17.16-7.26,22.22-10.98,15.33-16.73-3.09-2.58-8.42-4.59-13.67-6.58.25,1.13.47,2.36.33,2.74-.27.75-15.12-5.22-37.61-7.8s-40.99,2.59-40.99,2.59c10.02,17.53,24.62,31.98,42.13,41.65,0,0,17.32-8.61,34.48-15.87"/>
  <path class="st0" d="M261.93,267.57l-.44-.3c.64-1.02.92-1.76.83-2.21-.09-.45-.38-.89-.86-1.33l-10.29-9.21c-.42-.36-.8-.6-1.14-.74-.34-.14-.7-.13-1.06.04s-.87.54-1.52,1.12l-.36-.39c.1-.12.47-.5,1.1-1.15s1.05-1.09,1.25-1.33c.42-.49.78-.96,1.08-1.4l18.75,1.1-8.96-7.69c-.52-.44-.96-.71-1.32-.8-.36-.09-.74-.04-1.12.16-.39.2-.96.63-1.71,1.3l-.36-.39c.09-.1.45-.48,1.09-1.14.64-.65,1.07-1.12,1.3-1.38.22-.25.6-.74,1.14-1.48.55-.73.84-1.12.88-1.16l.44.3c-.47.73-.76,1.27-.87,1.61s-.09.67.06,1c.15.32.48.7.99,1.13l12.36,11.17-.33.61-21.47-1.18,10.83,9.17c.61.52,1.15.71,1.62.57.47-.14,1.22-.7,2.25-1.67l.36.39c-.06.07-.45.48-1.14,1.2-.7.73-1.16,1.23-1.39,1.5-.2.24-.55.69-1.04,1.35-.51.67-.82,1.08-.95,1.23M235.51,277.36c.84,1.04,1.74,1.9,2.72,2.6s1.96,1.18,2.97,1.46c1,.27,1.97.33,2.92.16.94-.17,1.8-.56,2.56-1.18,1.59-1.28,2.31-2.9,2.18-4.88-.14-1.98-1.14-4.13-3.02-6.47-.84-1.04-1.74-1.9-2.73-2.59-.98-.69-1.97-1.18-2.97-1.46-.99-.28-1.97-.33-2.92-.16-.95.18-1.81.57-2.57,1.18-1.59,1.28-2.31,2.9-2.16,4.87.13,1.99,1.14,4.14,3.02,6.47ZM232.9,279.51c-.96-1.19-1.63-2.46-2-3.8-.38-1.34-.48-2.66-.31-3.94s.58-2.49,1.22-3.61,1.46-2.08,2.45-2.88c.76-.61,1.66-1.16,2.7-1.65s2.18-.76,3.42-.81c1.24-.05,2.39.14,3.46.59,1.07.45,1.97.99,2.71,1.63s1.36,1.27,1.86,1.89c.71.88,1.3,1.91,1.76,3.07.46,1.16.67,2.4.62,3.7-.04,1.3-.3,2.47-.76,3.5-.47,1.03-.97,1.85-1.5,2.47s-1.03,1.11-1.49,1.48c-.76.61-1.66,1.16-2.71,1.65-1.04.49-2.18.76-3.42.81-1.24.05-2.39-.14-3.46-.59-1.07-.45-1.97-.99-2.71-1.63-.72-.63-1.34-1.26-1.84-1.88ZM222.16,296.37l-.3-.44c1.13-.8,1.71-1.42,1.76-1.84.05-.43-.09-.94-.41-1.55l-6.59-12.33c-.21-.4-.45-.72-.7-.97-.26-.25-.59-.36-.99-.32-.4.04-1,.2-1.8.5l-.2-.49c.14-.07.6-.29,1.39-.66s1.35-.63,1.67-.79.53-.27.62-.31c.12-.06.36-.2.72-.4.36-.2.9-.53,1.63-.97s1.14-.69,1.25-.75l.3.44c-.72.52-1.21.94-1.46,1.25s-.35.65-.29,1.01c.06.36.19.73.41,1.13l6.59,12.33c.21.4.45.72.72.97s.6.35,1,.31,1.02-.21,1.85-.52l.2.49c-.14.07-.61.3-1.42.68-.81.38-1.38.65-1.71.82s-.54.27-.63.32-.29.16-.61.35c-.32.18-.87.51-1.63.97-.78.42-1.23.69-1.37.77ZM200.88,304.18c.93-.44,1.56-.78,1.91-1.03.35-.24.57-.53.67-.86.09-.33.05-.76-.13-1.28l-5.21-15.26-1.95.82c-.69.3-1.19.68-1.51,1.15-.32.47-.52,1.04-.59,1.69s-.07,1.37-.01,2.16l-.57.13c-.1-.48-.31-1.28-.62-2.4s-.56-1.94-.74-2.48c3.39-.99,5.77-1.72,7.16-2.2.98-.34,2.33-.83,4.04-1.47,1.71-.65,2.92-1.11,3.63-1.4.44,2.44.8,4.09,1.08,4.97l-.61.21c-.35-.77-.7-1.41-1.05-1.91s-.76-.83-1.21-1c-.45-.17-1.12-.13-2.01.11l-2.32.67,5.21,15.26c.18.52.4.88.68,1.09.28.2.63.3,1.06.28.43-.02,1.14-.14,2.14-.36l.12.52s-.08.03-.14.05c-.06.02-.69.2-1.9.56-1.21.35-2.04.61-2.49.76-.2.07-.54.19-1,.37-.47.18-1.13.44-2,.78s-1.34.52-1.41.54l-.23-.47ZM175.76,301.15l5.65-.76-3.96-7.79-1.69,8.55ZM171.2,310.21l-.13-.52c.83-.29,1.42-.65,1.78-1.07s.63-1.07.8-1.95l3.01-13.71c.21-.96.12-1.63-.26-2.02s-1.02-.58-1.93-.56v-.5s2.68-.24,2.68-.24c.62-.08,1.17-.19,1.65-.31l8.13,15.47c.54,1.05,1.03,1.7,1.48,1.95s.99.38,1.63.42v.5c-.07.01-.67.06-1.79.15s-1.89.17-2.3.22c-.41.05-1.09.18-2.04.36-.95.19-1.49.29-1.6.31l-.13-.49c1.09-.29,1.75-.63,1.98-1.02.23-.4.16-.97-.22-1.73l-2.14-4.22-6.23.84-.88,4.47c-.19.93-.13,1.55.18,1.86.31.3,1.09.46,2.36.47v.5s-.53.04-1.44.11c-.91.06-1.55.12-1.92.17-.28.04-1.17.22-2.67.54ZM149.2,304.38c-.12,1.56.09,2.7.65,3.41.55.71,1.56,1.12,3.03,1.24.8.06,1.61-.03,2.44-.27.82-.24,1.58-.69,2.25-1.34.68-.65,1.26-1.51,1.73-2.58.48-1.06.77-2.32.88-3.76.12-1.48.01-2.84-.32-4.08-.33-1.23-.85-2.29-1.57-3.17s-1.62-1.58-2.72-2.1c-1.1-.52-2.33-.83-3.7-.94h-1.62s-1.05,13.59-1.05,13.59ZM143.27,309.05l-.02-.53c.89-.05,1.5-.13,1.85-.24.34-.11.59-.31.75-.59s.26-.72.31-1.3l1.08-13.94c.04-.45.01-.85-.07-1.2-.08-.35-.3-.62-.64-.8-.35-.18-.93-.37-1.74-.55l.1-.52c.16.01.66.08,1.5.19.85.11,1.45.19,1.81.23s.59.06.69.07l3.26.08c1.74.14,3.33.45,4.77.93,1.44.49,2.68,1.16,3.72,2.03,1.03.87,1.8,1.96,2.31,3.29.51,1.33.69,2.85.56,4.56-.11,1.46-.46,2.79-1.03,3.97s-1.34,2.17-2.29,2.96c-.95.79-2.08,1.37-3.36,1.74-1.29.37-2.67.5-4.15.38-.61-.05-1.55-.15-2.85-.32-1.29-.17-2.11-.27-2.44-.29-.1-.01-.33-.02-.69-.04-.36-.02-.98-.04-1.87-.06-.88-.03-1.4-.04-1.56-.05ZM113.42,301.81l.09-.52c1.2.17,1.98.12,2.36-.14.38-.27.66-.71.87-1.32l4.23-13.14c.16-.53.23-.97.21-1.35-.01-.37-.17-.69-.47-.95s-.85-.57-1.64-.93l.21-.49c.15.04.65.22,1.5.53.85.31,1.42.51,1.72.6.62.18,1.19.32,1.71.42l6.61,17.58,3.38-11.31c.19-.66.26-1.17.19-1.54-.06-.37-.27-.69-.6-.96-.34-.27-.97-.62-1.88-1.03l.21-.49c.13.04.63.22,1.48.53.86.32,1.45.52,1.79.62.32.09.92.24,1.81.45.89.2,1.36.31,1.42.33l-.09.52c-.86-.13-1.47-.18-1.83-.14s-.65.19-.89.46c-.23.27-.44.72-.63,1.36l-5.18,15.83-.69-.05-7.64-20.09-3.97,13.62c-.23.77-.18,1.34.14,1.71s1.13.83,2.44,1.38l-.21.49c-.09-.03-.62-.21-1.57-.56-.95-.34-1.59-.56-1.93-.66-.3-.09-.85-.22-1.66-.4-.81-.18-1.31-.3-1.49-.36ZM93.22,283.42l4.17-7.86c.37-.69.56-1.2.59-1.53s-.09-.62-.35-.88c-.26-.26-.6-.54-1.01-.85l.3-.44s.48.28,1.37.83c.9.54,1.54.91,1.92,1.12.87.46,2.08,1.04,3.64,1.73l-.2.49c-.76-.29-1.35-.44-1.78-.46s-.8.11-1.1.38c-.3.27-.57.64-.82,1.11l-4.26,8.04c-2.16,4.08-1.83,6.88,1.01,8.38,1.16.61,2.21.88,3.16.81s1.83-.46,2.64-1.16c.81-.7,1.62-1.8,2.42-3.31l4.22-7.97c.44-.83.59-1.46.45-1.89-.14-.43-.67-.98-1.6-1.65l.3-.44c.17.09.57.34,1.2.74.63.4,1.09.68,1.39.83.31.17.79.38,1.43.66.64.27,1.05.46,1.22.55l-.2.49c-.44-.17-.86-.27-1.25-.3-.39-.03-.74.09-1.04.36-.3.27-.65.76-1.04,1.46l-4.21,7.31c-1.07,1.94-2.12,3.28-3.14,4.04-1.02.76-2.06,1.12-3.11,1.11-1.05-.02-2.21-.36-3.48-1.03-.93-.49-1.77-1.06-2.52-1.7s-1.28-1.37-1.59-2.21c-.31-.83-.39-1.78-.22-2.84.17-1.05.67-2.36,1.49-3.92ZM73.1,265.04c-.88,1-1.57,2.04-2.09,3.13-.52,1.08-.82,2.14-.92,3.17-.1,1.03.02,2,.35,2.9s.86,1.67,1.6,2.32c1.53,1.34,3.26,1.77,5.19,1.3,1.92-.48,3.87-1.84,5.85-4.1.88-1,1.57-2.05,2.08-3.14.51-1.09.82-2.15.92-3.17s0-1.99-.35-2.9c-.34-.91-.88-1.68-1.61-2.33-1.53-1.34-3.26-1.77-5.17-1.29-1.94.49-3.88,1.85-5.85,4.11ZM70.54,262.84c1.01-1.15,2.14-2.03,3.39-2.63,1.26-.6,2.53-.93,3.83-.98,1.29-.05,2.55.14,3.76.58,1.22.44,2.3,1.08,3.26,1.92.74.64,1.43,1.44,2.09,2.38s1.12,2.02,1.39,3.23c.27,1.21.27,2.38.02,3.51-.26,1.13-.64,2.11-1.14,2.95-.5.84-1.01,1.56-1.54,2.16-.75.85-1.65,1.61-2.72,2.26-1.07.65-2.25,1.07-3.54,1.26-1.29.18-2.48.13-3.58-.15-1.09-.28-1.99-.63-2.69-1.05-.7-.42-1.27-.82-1.71-1.21-.74-.64-1.44-1.44-2.09-2.38-.66-.94-1.12-2.02-1.39-3.23-.27-1.21-.27-2.38-.02-3.51.26-1.13.64-2.11,1.14-2.95.49-.84,1.01-1.56,1.54-2.16ZM48.93,252.56l.38-.37c.63.62,1.11,1.03,1.42,1.2.31.18.63.23.94.16.32-.07.71-.29,1.17-.65l11.05-8.57c.36-.28.64-.56.84-.86s.26-.63.16-1.02c-.1-.38-.35-.93-.76-1.66l.45-.28c.1.12.39.54.87,1.24.48.7.83,1.2,1.05,1.49.21.29.35.48.41.55,1.6,2.06,3.46,4.34,5.58,6.86-.45.25-1.15.66-2.1,1.24-.95.58-1.66,1.02-2.14,1.34l-.32-.42c.98-.91,1.57-1.74,1.77-2.49s-.1-1.64-.91-2.68l-1.69-2.18-6.24,4.84,1.58,2.04c.43.56.9.92,1.4,1.09.5.17,1.33-.04,2.48-.64l.28.45c-1.33.88-2.2,1.48-2.61,1.8-.39.3-1.17.98-2.35,2.05l-.37-.38c.86-.94,1.27-1.68,1.23-2.22-.04-.54-.27-1.09-.7-1.65l-1.58-2.04-5.71,4.43c-.43.34-.7.67-.81,1-.1.33-.08.69.08,1.09s.5,1.03,1.04,1.91l-.45.28s-.07-.1-.14-.21c-.07-.11-.45-.65-1.15-1.63s-1.19-1.65-1.46-2.01c-.06-.08-.21-.26-.43-.54-.23-.28-.63-.75-1.21-1.42-.62-.62-.95-1.01-1.05-1.14Z"/>
  <path class="st0" d="M277.08,110.43c-1.43.64-2.32,1.38-2.68,2.2-.36.83-.24,1.91.37,3.25.33.73.8,1.4,1.4,2.01.61.61,1.36,1.05,2.26,1.34.9.28,1.93.38,3.09.29s2.4-.44,3.72-1.03c1.36-.61,2.5-1.35,3.42-2.23.93-.88,1.6-1.84,2.03-2.89.43-1.05.61-2.18.53-3.4-.07-1.21-.39-2.44-.95-3.69l-.77-1.43-12.42,5.58ZM270.14,107.46l.46-.27c.47.76.83,1.26,1.09,1.5.26.25.55.37.88.38.32,0,.75-.11,1.29-.35l12.75-5.73c.41-.18.75-.4,1.02-.63.27-.24.4-.56.39-.95-.01-.39-.12-.99-.35-1.79l.51-.16c.06.14.25.61.55,1.41.3.8.53,1.36.67,1.7.14.33.23.55.27.64l1.5,2.9c.71,1.59,1.2,3.13,1.47,4.64.27,1.5.27,2.91,0,4.23-.26,1.32-.86,2.52-1.78,3.6-.92,1.08-2.17,1.97-3.74,2.68-1.34.6-2.67.93-3.98,1-1.31.06-2.54-.13-3.7-.59-1.15-.46-2.2-1.16-3.14-2.11-.94-.95-1.72-2.1-2.33-3.46-.25-.55-.61-1.44-1.08-2.65-.47-1.22-.78-1.98-.91-2.28-.04-.09-.14-.3-.3-.62-.16-.33-.44-.88-.85-1.67-.39-.81-.63-1.27-.69-1.42ZM255.87,84.99l.4-.35c.82.89,1.45,1.35,1.91,1.38s.96-.13,1.51-.47l11.61-7.47c.45-.31.79-.61,1.02-.9.23-.29.31-.64.24-1.03-.07-.39-.29-.98-.68-1.76l.47-.25c.09.13.36.58.82,1.36.46.78.77,1.3.95,1.56.36.54.72,1.01,1.06,1.41l-6.05,17.78,9.79-6.59c.57-.38.94-.74,1.12-1.06s.23-.7.14-1.13-.35-1.09-.8-1.99l.47-.25c.08.11.35.56.81,1.35s.79,1.33.99,1.62c.19.28.56.77,1.12,1.49s.85,1.11.89,1.15l-.4.35c-.58-.65-1.02-1.07-1.32-1.27-.3-.2-.63-.27-.98-.21s-.8.28-1.35.65l-14.05,8.95-.5-.48,6.84-20.38-11.71,8c-.66.45-.99.92-.98,1.41.01.49.35,1.36,1.01,2.62l-.47.25c-.06-.08-.34-.56-.86-1.42-.52-.87-.87-1.45-1.07-1.74-.18-.26-.52-.71-1.03-1.36-.5-.65-.81-1.06-.92-1.22ZM241.75,70.53l.33-.42c.71.53,1.24.86,1.57.99.33.13.65.14.96.03.3-.12.66-.38,1.07-.81l9.73-10.04c.31-.32.55-.65.71-.97s.17-.66.01-1.03c-.15-.36-.48-.88-.99-1.53l.41-.34c.11.11.46.48,1.04,1.11.58.63.99,1.07,1.25,1.33.25.26.42.42.49.49.06.05.18.18.38.37s.94.88,2.22,2.07c1.29,1.19,2.63,2.43,4.04,3.71-1.37,1.02-2.63,2.05-3.77,3.09l-.42-.41c.48-.58.86-1.15,1.15-1.71.29-.57.37-1.11.25-1.63-.12-.52-.48-1.08-1.09-1.67l-2.3-2.23-5.62,5.8,2.19,2.12c.46.45.95.71,1.45.79.5.08,1.28-.26,2.33-1.01l.36.43c-.82.68-1.6,1.4-2.35,2.18-.68.7-1.35,1.48-2,2.32l-.44-.3c.43-.64.71-1.19.85-1.63.13-.45.11-.85-.06-1.2-.17-.36-.41-.68-.7-.96l-2.19-2.13-4.11,4.24c-.75.77-1.14,1.45-1.18,2.04-.04.59.28,1.21.95,1.86l.63.61c1.42,1.38,3.42,1.34,6-.12l.32.47c-.55.37-1.26.89-2.15,1.56-.88.67-1.54,1.19-1.98,1.56-.04-.04-.14-.14-.3-.31-.15-.16-.98-1.01-2.48-2.53s-2.66-2.67-3.47-3.47c-.07-.07-.24-.22-.51-.47-.27-.24-.73-.66-1.4-1.23-.68-.57-1.07-.91-1.18-1.02ZM219.46,54.52l.24-.47c.8.39,1.38.62,1.73.69s.67.02.94-.15c.28-.17.58-.5.9-.99l7.71-11.66c.25-.38.42-.74.52-1.08.1-.35.04-.68-.18-1.01-.22-.33-.63-.77-1.26-1.32l.34-.41c.13.09.54.38,1.22.9.68.51,1.17.87,1.47,1.08s.49.34.57.39c.11.08.34.22.68.43s.87.53,1.59.95,1.14.66,1.25.74l-.24.47c-.77-.37-1.35-.59-1.75-.66s-.74,0-1.03.22-.55.52-.8.9l-3.33,5.05,8.16,5.39,3.33-5.05c.25-.38.42-.74.52-1.08.1-.34.04-.68-.18-1.01-.22-.33-.63-.77-1.26-1.32l.34-.41c.13.09.54.38,1.22.9.68.51,1.17.87,1.47,1.08s.49.34.57.39c.08.05.28.18.6.38s.85.52,1.6.95c.75.44,1.2.7,1.33.79l-.24.47c-.77-.37-1.35-.59-1.75-.66s-.74,0-1.03.22-.55.52-.8.9l-7.71,11.66c-.25.38-.42.74-.51,1.09s-.02.69.2,1.03.66.78,1.29,1.35l-.34.41c-.13-.09-.55-.39-1.25-.91s-1.2-.89-1.51-1.1c-.3-.21-.5-.35-.58-.4s-.28-.18-.58-.37c-.31-.19-.84-.51-1.6-.95s-1.21-.71-1.34-.8l.24-.47c.8.39,1.38.62,1.73.69s.67.02.94-.15c.28-.17.58-.5.9-.99l3.85-5.83-8.16-5.39-3.85,5.83c-.25.38-.42.74-.51,1.09s-.02.69.2,1.03.65.78,1.29,1.35l-.34.41c-.13-.09-.55-.39-1.25-.91s-1.2-.89-1.51-1.1c-.3-.21-.5-.35-.58-.4s-.28-.18-.58-.37c-.31-.19-.84-.51-1.6-.95-.71-.51-1.15-.77-1.29-.86ZM204.49,46.4c.17-.44.48-.75.92-.95.44-.19.88-.21,1.29-.05.44.17.75.48.95.92.19.44.21.88.04,1.32-.17.44-.48.75-.92.94s-.88.19-1.32.02c-.42-.16-.73-.47-.92-.91-.19-.43-.2-.87-.04-1.29ZM187.81,34.27l5.55,1.29-.94-8.69-4.61,7.4ZM180.33,41.13l.06-.53c.88.02,1.56-.1,2.05-.37.48-.27.97-.78,1.44-1.53l7.68-11.75c.53-.82.69-1.48.48-1.98-.22-.5-.75-.9-1.61-1.2l.17-.47,2.6.73c.61.14,1.16.24,1.65.29l2.12,17.35c.13,1.18.36,1.96.69,2.35.33.39.79.71,1.37.97l-.17.47c-.08-.02-.66-.18-1.74-.49s-1.83-.51-2.23-.61c-.4-.09-1.08-.22-2.04-.38-.96-.16-1.49-.26-1.61-.28l.06-.5c1.12.12,1.86.03,2.21-.25.36-.29.5-.86.41-1.7l-.51-4.7-6.12-1.42-2.41,3.87c-.51.81-.67,1.41-.49,1.8.18.39.86.82,2.04,1.27l-.17.47c-.06-.01-.52-.15-1.4-.42-.87-.26-1.49-.44-1.85-.52-.26-.09-1.16-.24-2.68-.47ZM157.21,39.61c1.02-.1,1.74-.21,2.15-.33.41-.11.72-.31.92-.59s.3-.7.31-1.24l.21-16.12-2.12.12c-.74.05-1.35.24-1.81.58s-.84.8-1.12,1.4c-.28.59-.53,1.27-.73,2.03l-.59-.07c.07-.49.14-1.31.22-2.46.08-1.15.13-2.01.14-2.58,3.52.2,6.02.31,7.49.33,1.04,0,2.47,0,4.3-.03,1.83-.04,3.13-.07,3.89-.1-.4,2.44-.62,4.12-.65,5.04h-.65c-.07-.85-.19-1.57-.35-2.16-.17-.59-.44-1.04-.81-1.35-.37-.31-1.01-.5-1.93-.57l-2.41-.15-.21,16.12c-.01.55.09.97.28,1.25.19.29.49.49.9.61s1.12.25,2.14.38l-.07.53h-.15c-.06,0-.72-.04-1.98-.11-1.26-.07-2.13-.12-2.6-.12-.22,0-.57,0-1.07.02-.5.01-1.21.03-2.14.06-.93.03-1.43.04-1.51.04l-.05-.53ZM136.83,32.23l1.19-.2c.48-.08.95-.25,1.4-.51.45-.26.82-.6,1.11-1.02.29-.43.48-.91.57-1.47.1-.55.09-1.15-.02-1.78-.15-.91-.46-1.69-.92-2.35-.46-.66-1.02-1.1-1.7-1.32-.67-.22-1.34-.28-1.99-.17l-1.1.22,1.46,8.6ZM133.1,43.14l-.15-.51c.85-.26,1.43-.49,1.73-.68.31-.19.5-.44.59-.75s.08-.76-.02-1.34l-2.33-13.78c-.08-.44-.19-.83-.36-1.15-.16-.32-.43-.53-.81-.62-.37-.1-.99-.13-1.84-.11l-.03-.53c.15-.03.66-.09,1.5-.18.85-.09,1.45-.17,1.81-.22s.59-.08.68-.1l3.07-.7c1.91-.32,3.47-.19,4.69.41,1.21.6,1.96,1.72,2.24,3.36.1.62.08,1.27-.09,1.95-.16.68-.54,1.33-1.14,1.95-.6.62-1.26,1.07-1.99,1.35.45.08.93.29,1.43.64.5.34.97.72,1.38,1.14.42.42.79.8,1.1,1.15.32.35.64.73.98,1.12.33.39.55.65.65.77.84.97,1.64,1.72,2.39,2.26.76.54,1.58.88,2.48,1.03v.51c-1.05.22-2.02.32-2.88.29-.87-.02-1.67-.22-2.4-.61-.73-.38-1.55-1.14-2.46-2.28-1.6-2.07-2.8-3.38-3.6-3.93-.8-.55-1.54-.77-2.24-.65l-.55.09,1.08,6.37c.08.44.2.83.37,1.14.17.32.46.52.85.62.39.09,1.02.12,1.89.1l.03.53c-.17.03-.69.09-1.56.19s-1.48.17-1.84.22-.59.08-.68.1c-.1.02-.32.06-.68.13s-.96.2-1.81.4c-.82.18-1.32.29-1.48.32ZM113.8,49.96l-.25-.47c.78-.43,1.3-.77,1.56-1.02s.4-.53.42-.86c.02-.32-.08-.76-.29-1.31l-5.08-13.02c-.16-.42-.36-.77-.58-1.05-.23-.28-.53-.43-.93-.44-.39-.01-1,.07-1.8.26l-.14-.51c.15-.06.62-.22,1.44-.48.81-.26,1.39-.46,1.73-.58s.56-.2.65-.24c.07-.03.24-.09.49-.19.26-.1,1.19-.49,2.81-1.16s3.3-1.38,5.05-2.13c.36,1.67.77,3.24,1.24,4.72l-.55.21c-.33-.67-.68-1.26-1.08-1.75-.39-.5-.85-.8-1.38-.91-.53-.11-1.18-.01-1.97.29l-2.98,1.16,2.94,7.52,2.85-1.11c.6-.23,1.04-.56,1.32-.99.28-.42.29-1.27.05-2.54l.54-.15c.27,1.03.61,2.04,1,3.05.36.91.78,1.84,1.27,2.78l-.46.27c-.41-.66-.78-1.14-1.13-1.45-.35-.3-.72-.45-1.12-.45-.4.01-.79.09-1.17.24l-2.85,1.11,2.15,5.5c.39,1,.85,1.65,1.37,1.93s1.22.25,2.09-.09l.82-.32c1.84-.72,2.64-2.55,2.39-5.5l.56-.09c.11.65.28,1.52.53,2.6.24,1.08.44,1.9.59,2.45-.05.02-.19.07-.4.14s-1.32.47-3.33,1.2c-2.01.73-3.54,1.3-4.6,1.71-.09.04-.3.12-.64.26-.33.14-.9.39-1.71.76-.8.38-1.28.59-1.42.65ZM98.02,53.67c.7,1.22,1.31,1.93,1.83,2.13s1.16.08,1.93-.36c.97-.56,1.52-1.32,1.64-2.3.13-.98-.16-2.08-.86-3.3-.35-.61-.75-1.09-1.21-1.42-.45-.34-.93-.59-1.43-.75s-1.1-.21-1.8-.15-1.41.3-2.14.72l-.82.47,2.86,4.96ZM94.78,48.01l.97-.56c.87-.5,1.38-1.23,1.54-2.19.16-.96-.04-1.93-.61-2.92-.23-.41-.53-.8-.89-1.17-.36-.37-.79-.66-1.29-.89-.5-.22-1.02-.3-1.57-.25s-1.01.19-1.4.42l-.8.49,4.05,7.07ZM95.3,60.07l-.31-.43c.71-.54,1.17-.95,1.39-1.24.22-.28.32-.59.29-.91-.03-.32-.19-.74-.48-1.25l-6.96-12.12c-.22-.39-.47-.71-.73-.95-.26-.24-.59-.34-.98-.3s-.97.22-1.75.53l-.21-.49c.14-.08.59-.31,1.35-.69.76-.38,1.3-.66,1.62-.83.32-.17.52-.28.61-.33l2.36-1.56c1.19-.68,2.26-1.08,3.21-1.19.95-.11,1.79.02,2.51.39.72.37,1.33.98,1.82,1.85.38.66.55,1.39.52,2.17-.03.79-.24,1.49-.61,2.11-.38.62-.78,1.13-1.2,1.54.65-.28,1.34-.49,2.07-.63.73-.14,1.44-.15,2.11-.04s1.29.35,1.86.73,1.04.89,1.42,1.56c.84,1.46,1.01,2.92.52,4.38-.49,1.46-1.62,2.69-3.39,3.71-.51.29-1.13.61-1.87.96-.74.35-1.3.63-1.67.84-.08.05-.28.17-.59.36-.31.19-.83.52-1.57,1.01-.76.47-1.2.75-1.34.82ZM70.74,67.37c.88,1,1.82,1.83,2.83,2.48,1.01.65,2.01,1.09,3.03,1.33,1.01.23,1.99.24,2.92.03.94-.21,1.77-.64,2.51-1.29,1.53-1.35,2.18-3,1.96-4.97-.22-1.97-1.32-4.08-3.3-6.33-.88-1-1.83-1.82-2.84-2.47s-2.02-1.09-3.03-1.33c-1-.24-1.98-.25-2.92-.03s-1.78.65-2.52,1.3c-1.53,1.35-2.18,3-1.95,4.96.22,1.97,1.33,4.07,3.31,6.32ZM68.23,69.63c-1.01-1.15-1.73-2.38-2.17-3.71-.44-1.32-.6-2.63-.48-3.92.12-1.29.47-2.51,1.06-3.66s1.37-2.14,2.32-2.98c.73-.65,1.61-1.24,2.63-1.77s2.15-.85,3.38-.96c1.23-.11,2.39.04,3.48.44,1.08.4,2.01.9,2.78,1.51.77.6,1.41,1.21,1.95,1.81.75.85,1.38,1.85,1.89,2.99.51,1.14.77,2.37.79,3.67,0,1.3-.19,2.48-.61,3.53s-.88,1.89-1.39,2.53c-.5.64-.98,1.16-1.42,1.54-.73.65-1.61,1.24-2.63,1.77s-2.15.85-3.38.96c-1.23.11-2.39-.04-3.48-.44-1.08-.4-2.01-.9-2.78-1.51-.77-.6-1.41-1.2-1.94-1.8ZM56.06,84.15l.73-.96c.3-.39.52-.83.68-1.33.16-.5.19-1,.11-1.5-.08-.51-.28-.99-.59-1.46s-.72-.9-1.23-1.29c-.73-.56-1.49-.92-2.27-1.08-.78-.17-1.5-.1-2.14.2-.64.3-1.17.71-1.57,1.24l-.65.91,6.93,5.27ZM60.8,94.66l-.46-.27c.44-.77.71-1.33.8-1.68s.06-.67-.09-.95c-.15-.29-.46-.61-.93-.96l-11.13-8.46c-.36-.27-.71-.47-1.04-.59-.34-.12-.68-.09-1.01.1-.34.19-.81.58-1.41,1.18l-.38-.37c.09-.13.42-.51.97-1.16s.95-1.11,1.17-1.4c.23-.28.37-.46.43-.54l1.76-2.61c1.17-1.54,2.41-2.51,3.7-2.9,1.29-.39,2.6-.09,3.93.92.5.38.92.87,1.27,1.48.35.61.52,1.34.5,2.21-.02.86-.19,1.64-.53,2.35.39-.25.88-.42,1.48-.52.6-.1,1.2-.13,1.79-.12.59.02,1.12.05,1.59.09s.97.09,1.48.15.84.09,1,.12c1.28.13,2.37.14,3.29.01.92-.12,1.76-.44,2.51-.95l.34.37c-.62.88-1.25,1.61-1.9,2.19-.65.58-1.37.98-2.16,1.2-.79.22-1.91.23-3.35.02-2.59-.42-4.36-.55-5.32-.41-.96.14-1.65.5-2.08,1.06l-.34.44,5.14,3.91c.36.27.71.47,1.05.58s.69.07,1.04-.13c.35-.2.83-.61,1.45-1.22l.39.37c-.11.14-.44.54-1.01,1.21-.57.66-.96,1.14-1.19,1.42s-.37.46-.43.54c-.06.08-.19.26-.41.56-.21.29-.56.8-1.05,1.53-.47.68-.76,1.1-.86,1.23ZM48.75,118.29l-.51-.16c.25-.85.37-1.46.38-1.82,0-.36-.09-.66-.31-.9-.21-.24-.59-.48-1.13-.72l-12.8-5.62c-.41-.18-.8-.29-1.15-.33-.36-.04-.68.08-.97.34-.29.27-.65.76-1.09,1.46l-.46-.27c.06-.14.29-.6.68-1.36.39-.76.66-1.3.81-1.63.15-.33.25-.54.29-.63.03-.07.1-.23.21-.48s.5-1.19,1.17-2.81,1.36-3.31,2.07-5.07c1.43.93,2.84,1.75,4.21,2.46l-.24.54c-.7-.25-1.37-.41-2-.48s-1.17.04-1.62.33c-.45.29-.84.83-1.18,1.6l-1.29,2.93,7.39,3.25,1.23-2.8c.26-.59.34-1.13.23-1.63-.1-.49-.69-1.11-1.76-1.83l.28-.49c.92.53,1.87,1.02,2.86,1.45.9.39,1.85.75,2.87,1.07l-.13.52c-.75-.18-1.36-.26-1.83-.22-.46.03-.83.19-1.11.48-.27.29-.5.62-.66.99l-1.23,2.8,5.4,2.37c.99.43,1.76.57,2.33.4s1.04-.68,1.42-1.54l.35-.81c.8-1.81.06-3.67-2.2-5.58l.33-.46c.54.39,1.27.87,2.21,1.47.94.59,1.65,1.03,2.15,1.31-.02.05-.08.18-.18.38-.1.2-.6,1.27-1.5,3.2-.9,1.93-1.58,3.42-2.04,4.46-.04.09-.13.3-.26.64-.14.34-.36.92-.67,1.74-.3.82-.48,1.31-.55,1.45ZM41.39,144.93l-.53-.06c.08-.89.09-1.51.03-1.86-.06-.35-.22-.63-.48-.83-.26-.2-.67-.36-1.24-.49l-13.64-3.06c-.44-.1-.84-.13-1.2-.1s-.65.2-.89.52c-.23.32-.5.87-.79,1.64l-.5-.17c.03-.15.17-.64.4-1.46.23-.82.4-1.41.48-1.76.09-.35.14-.57.17-.67.03-.13.08-.4.16-.79s.18-1,.32-1.82c.13-.82.22-1.3.25-1.43l.53.06c-.07.85-.07,1.47,0,1.87s.26.69.57.88c.31.19.68.33,1.12.43l5.9,1.32,2.14-9.54-5.9-1.32c-.44-.1-.84-.13-1.2-.1s-.65.2-.88.52c-.23.32-.5.87-.79,1.64l-.5-.17c.03-.15.17-.64.4-1.46.23-.82.4-1.41.48-1.76.09-.35.14-.57.17-.67.02-.1.07-.33.14-.69.07-.37.18-.98.32-1.84.14-.86.23-1.37.27-1.52l.53.06c-.07.85-.07,1.47,0,1.87s.26.69.57.88c.31.19.68.33,1.12.43l13.64,3.06c.44.1.84.13,1.2.09s.66-.22.89-.55.5-.89.8-1.69l.5.17c-.03.15-.17.65-.41,1.49s-.4,1.44-.49,1.8c-.09.36-.15.59-.17.68-.02.1-.07.32-.14.68-.07.36-.18.97-.32,1.84-.15.87-.24,1.38-.27,1.53l-.53-.06c.08-.89.09-1.51.03-1.86-.06-.35-.22-.63-.48-.83-.26-.2-.67-.36-1.24-.49l-6.82-1.53-2.14,9.54,6.82,1.53c.44.1.84.13,1.2.09s.66-.22.89-.55.5-.89.8-1.69l.5.17c-.03.15-.17.65-.41,1.49s-.4,1.44-.49,1.8c-.09.36-.15.59-.17.68-.02.1-.07.32-.14.68-.07.36-.18.97-.32,1.84-.13.88-.22,1.39-.26,1.54ZM39.04,163.63c-.04-1.02-.11-1.75-.19-2.16-.09-.42-.27-.74-.53-.95-.27-.22-.68-.34-1.22-.38l-16.08-1.18v2.12c0,.75.15,1.36.46,1.85.31.48.75.88,1.32,1.2.58.32,1.24.6,1.98.85l-.1.58c-.48-.09-1.3-.22-2.45-.37s-2-.25-2.57-.29c.42-3.5.68-5.99.78-7.45.08-1.03.15-2.47.23-4.3s.12-3.13.14-3.89c2.41.55,4.08.87,4.99.96l-.05.64c-.85.02-1.57.09-2.17.22-.6.13-1.06.37-1.39.72s-.56.98-.68,1.89l-.29,2.39,16.08,1.18c.55.04.97-.03,1.27-.2s.52-.46.67-.86.32-1.11.51-2.11l.52.1s0,.09,0,.15-.08.72-.23,1.97-.24,2.12-.28,2.59c-.02.21-.03.57-.05,1.07s-.04,1.21-.07,2.14c-.03.93-.05,1.43-.05,1.51h-.54Z"/>
  <path class="st0" d="M284.31,155.6c.13,1.02.25,1.73.38,2.14.12.41.33.71.61.9.29.19.7.29,1.25.28l3.91-.04c.57-.01,1.12-.06,1.64-.17.53-.1,1.18-.4,1.96-.87l6.74-4.13c.7-.42,1.19-.79,1.47-1.1.28-.32.5-.79.67-1.42l.53.05c0,.12-.02.6-.07,1.45-.05.85-.07,1.48-.07,1.9,0,.1.01.34.02.73.01.39.05,1.07.11,2.04s.09,1.53.09,1.69l-.53.07c-.13-.94-.41-1.58-.84-1.93s-1.01-.31-1.73.11l-6.74,3.98,6.71,3.89c.69.4,1.27.45,1.75.14s.78-.94.9-1.9l.53.05c0,.1-.02.54-.07,1.32-.05.78-.07,1.38-.07,1.79,0,.31.04.81.11,1.48.07.67.1,1.09.1,1.25l-.53.06c-.12-.55-.39-1.08-.81-1.59-.42-.51-1.25-1.15-2.49-1.9l-6.33-3.8c-.38-.23-.97-.34-1.8-.33l-5.14.06c-.55.01-.96.11-1.24.31s-.48.5-.59.92c-.11.41-.22,1.13-.33,2.15l-.53-.05v-.15c0-.06.02-.72.07-1.98.04-1.26.06-2.13.06-2.6,0-.22-.02-.57-.04-1.07-.03-.5-.06-1.21-.11-2.14-.05-.93-.08-1.43-.08-1.51l.53-.08ZM290.54,134.86l.28,1.17c.11.48.31.93.6,1.37.29.43.65.78,1.09,1.04s.94.41,1.5.47,1.15.01,1.78-.14c.89-.22,1.65-.57,2.28-1.08.62-.5,1.02-1.1,1.2-1.78.18-.69.19-1.35.03-2l-.29-1.08-8.47,2.03ZM279.41,131.89l.5-.18c.32.83.59,1.39.8,1.68.21.29.48.47.79.53.32.06.76.03,1.33-.11l13.59-3.27c.44-.11.81-.25,1.12-.43s.5-.47.57-.85.06-.99-.02-1.84l.53-.07c.04.15.13.65.28,1.49s.27,1.44.34,1.79c.08.35.12.58.15.67l.91,3.01c.45,1.88.42,3.45-.09,4.7s-1.58,2.07-3.2,2.46c-.61.15-1.26.16-1.95.05-.69-.12-1.37-.45-2.02-1.01-.66-.56-1.15-1.19-1.48-1.89-.05.46-.23.95-.54,1.47-.31.53-.65,1.01-1.04,1.46-.39.45-.74.84-1.08,1.18-.33.34-.68.69-1.05,1.05s-.61.59-.72.7c-.91.9-1.61,1.75-2.09,2.54s-.77,1.64-.85,2.55l-.51.03c-.29-1.04-.45-1.99-.49-2.86-.04-.87.11-1.68.44-2.43.33-.75,1.03-1.62,2.11-2.61,1.96-1.74,3.18-3.03,3.68-3.86.49-.83.66-1.59.49-2.28l-.13-.54-6.28,1.51c-.44.11-.81.25-1.12.45-.31.19-.49.49-.56.89-.07.4-.05,1.03.03,1.9l-.53.07c-.04-.17-.14-.69-.3-1.54-.16-.86-.27-1.47-.35-1.82-.08-.35-.12-.58-.15-.67-.02-.09-.08-.32-.18-.67-.09-.35-.27-.94-.52-1.78-.23-.82-.37-1.32-.41-1.47Z"/>
  <path class="st1" d="M33.14,193.09c2.76,0,5,2.24,5,5s-2.24,5-5,5-5-2.24-5-5,2.24-5,5-5"/>
  <path class="st1" d="M292.09,193.09c2.76,0,5,2.24,5,5s-2.24,5-5,5-5-2.24-5-5c-.01-2.76,2.23-5,5-5"/>
</svg>