<?xml version="1.0" encoding="UTF-8"?>
<svg id="Layer_1" xmlns="http://www.w3.org/2000/svg" version="1.1" viewBox="0 0 523.45 113.86">
  <!-- Generator: Adobe Illustrator 30.5.1, SVG Export Plug-In . SVG Version: 2.1.4 Build 3)  -->
  <defs>
    <style>
      .st0 {
        fill-rule: evenodd;
      }

      .st0, .st1 {
        fill: #0a1c32;
      }

      .st2 {
        fill: #a9abae;
      }
    </style>
  </defs>
  <path class="st0" d="M81.24,16.96c-2.08,4.42-3.56,7.96-5.37,15.44.01,0,3.26-6.07,5.37-15.44"/>
  <path class="st0" d="M72.55,14.95c-1.05,4.77-1.71,8.56-1.81,16.24,0,0,1.83-6.64,1.81-16.24"/>
  <path class="st0" d="M63.48,14.94c.05,4.88.27,8.72,1.9,16.23,0,0,.29-6.88-1.9-16.23"/>
  <path class="st0" d="M54.1,17.17c1.22,4.73,2.35,8.4,5.73,15.3,0,0-1.37-6.75-5.73-15.3"/>
  <path class="st0" d="M45.08,21.89c2.38,4.27,4.39,7.54,9.41,13.36,0,0-3.03-6.19-9.41-13.36"/>
  <path class="st0" d="M37.69,28.56c3.36,3.55,6.12,6.22,12.42,10.62,0-.01-4.46-5.25-12.42-10.62"/>
  <path class="st0" d="M33.06,35.18c4,2.8,7.25,4.86,14.31,7.9,0,0-5.43-4.23-14.31-7.9"/>
  <path class="st0" d="M29.39,44.19c4.56,1.75,8.21,2.96,15.79,4.21,0,0-6.29-2.79-15.79-4.21"/>
  <path class="st0" d="M28.01,53.47c4.84.64,8.67.97,16.34.42,0-.01-6.77-1.26-16.34-.42"/>
  <path class="st0" d="M28.81,62.67c4.86-.49,8.66-1.05,16-3.35,0,0-6.88.34-16,3.35"/>
  <path class="st0" d="M89.62,21.07c-3.05,3.81-5.31,6.92-8.8,13.77,0,0,4.58-5.15,8.8-13.77"/>
  <path class="st0" d="M96.75,26.93c-3.84,3.01-6.76,5.52-11.72,11.39,0,0,5.63-3.97,11.72-11.39"/>
  <path class="st0" d="M102.39,34.36c-4.44,2.04-7.85,3.8-14.04,8.36,0,0,6.4-2.55,14.04-8.36"/>
  <path class="st0" d="M106.08,42.66c-4.78.99-8.51,1.93-15.57,4.97,0,0,6.81-1.04,15.57-4.97"/>
  <path class="st0" d="M107.86,52.28c-4.88-.21-8.72-.2-16.31,1.04,0,0,6.85.65,16.31-1.04"/>
  <path class="st0" d="M107.27,61.85c-4.69-1.36-8.42-2.27-16.09-2.88,0,0,6.51,2.27,16.09,2.88"/>
  <path class="st0" d="M13.53,72.93l25.04-8.03c.79-.8,1.68-1.69,2.54-2.49l-27.58,10.52Z"/>
  <path class="st0" d="M10.78,59.94l34.94-2.75c-.07-.62-.11-1.26-.13-1.89l-34.81,4.64Z"/>
  <path class="st0" d="M11.13,46.48l34.61,5.46c.08-.63.18-1.26.31-1.87l-34.92-3.59Z"/>
  <path class="st0" d="M14.79,32.98l32.26,13.66c.23-.59.48-1.17.75-1.74l-33.01-11.92Z"/>
  <path class="st0" d="M20.24,22.73l28.86,19.88c.34-.53.71-1.05,1.09-1.55l-29.95-18.33Z"/>
  <path class="st0" d="M29.6,11.92l23.05,26.39c.46-.43.94-.85,1.44-1.24L29.6,11.92Z"/>
  <path class="st0" d="M41.64,3.62l15.64,31.36c.55-.3,1.12-.58,1.7-.84L41.64,3.62Z"/>
  <path class="st0" d="M54.91,0l7.4,32.99c.61-.16,1.23-.29,1.86-.4L54.98,0h-.07Z"/>
  <path class="st0" d="M67.55,0l-.22,32.28c.21-.01.42-.01.63-.01.43,0,.85.01,1.27.04l-1.53-32.31h-.15Z"/>
  <path class="st0" d="M79.99,0l-7.67,32.69c.63.12,1.24.27,1.85.45L80.08,0h-.09Z"/>
  <path class="st0" d="M92.99,2.97l-15.7,31.33c.58.26,1.14.55,1.69.86L92.99,2.97Z"/>
  <path class="st0" d="M104.17,10.09l-22.46,26.9c.5.39.98.8,1.45,1.23l21.01-28.13Z"/>
  <path class="st0" d="M113.52,19.7l-28.09,20.95c.4.49.77,1,1.12,1.53l26.97-22.48Z"/>
  <path class="st0" d="M120.23,30.89l-32.09,14.07c.27.57.52,1.15.75,1.74l31.34-15.81Z"/>
  <path class="st0" d="M124.44,44.3l-34.55,5.85c.13.62.23,1.24.3,1.87l34.25-7.72Z"/>
  <path class="st0" d="M125.28,58.05l-34.95-2.55c-.02.64-.07,1.27-.15,1.89l35.1.66Z"/>
  <path class="st0" d="M123.05,70.85l-33.48-10.34c-.17.61-.36,1.22-.57,1.81l34.05,8.53Z"/>
  <path class="st0" d="M102.49,79.95s-10.25-8.84-10.38-9.54,3.03-2.64,3.14-2.07c.12.57-.04,3.06,7.24,11.61M92.22,89.47s-10.69-13.24-11.04-12.75c-.35.48-.75.35-1.36-.2-.62-.55-6.68-7.19-6.68-7.19,0,0-1.1.84-.04,2.09s.77,4.73,1.69,5.3c.92.57,5.8,3.12,5.94,4.07.13.95-.09,2,.81,2.62.9.61,10.68,6.06,10.68,6.06ZM30.52,89.67s21.24-19.53,24.45-23.04c3.21-3.52,12.71-14.42,12.89-14.16s.2,6.42.37,7.59c.18,1.17,1.36,1.69.92,2.18-.44.48-11.32,10.95-16.25,15.83-4.93,4.88-7.63,8.99-8.18,8.55s-2.57-3.12-2.57-3.12l-11.63,6.17ZM125.55,87.47c3.73-2.98,6.34-5.17,6.34-5.17l-14.38-10.16-5.14,3.8s1.71,1.43,2.09,1.45c.37.02,2.2-.73,2.4-.18.2.55.44,2.7.44,2.7l8.25,7.56ZM8.06,91.74c4.8,3.8,11.79,8.55,21.05,12.97,19.7,9.41,31.71,9.06,35.09,9.15,3.39.09,4.4-2.29,1.14-4.22-3.25-1.94-18.12-4.97-18.21-10.25s11.04-6.73,18.95-7.87c7.92-1.14,15.83-1.56,16.34-3.12.51-1.56-1.61-1.98-.9-2.77.7-.79,2.73.31,2.99,2.64.26,2.33-4.68,3.74-11.13,4.57-6.44.84-16.16,2.33-16.43,4.93-.26,2.59,17.08,5.5,23.07,7.48,5.98,1.98,6.6,3.94,6.92,4.5s.54,1.56.54,1.56c0,0,11.81-4.85,21.18-11.14,4.93-3.31,11.11-8.08,15.85-11.86l-29.37-24.22-5.3,4.73-21.59-20.01s-20.27,21.42-21.07,21.29c-.79-.13,3.96-6.86,3.96-6.86l-3.42-2.66s-11.66,11.92-12.4,12.01c-.75.09-2.11-.18-2.11-.18l-4.9,4.22s1.82-.15,1.63.46c-.2.62-3.61,3.74-3.5,3.28s-.22-1.56-.22-1.56l-18.16,12.93ZM0,84.39s2.35,2.72,7.16,6.62l10.57-9.7s-.4-2.44.26-2.9,1.47,1.34,1.47,1.34l3.72-3.34-5.8-2.95L0,84.39Z"/>
  <path class="st0" d="M45.59,55.29c.02.64.06,1.27.13,1.89.07.66.18,1.3.31,1.94l1.55-.55c-.24-1.27-.37-2.58-.37-3.92,0-11.46,9.29-20.76,20.76-20.76s20.76,9.29,20.76,20.76c0,2.74-.53,5.36-1.5,7.76l1.44.77c.12-.28.23-.57.34-.86.22-.59.41-1.2.57-1.81.27-1.01.48-2.05.61-3.11.08-.62.13-1.25.15-1.89,0-.28.02-.57.02-.85,0-.89-.05-1.77-.15-2.63-.07-.63-.17-1.26-.3-1.87-.24-1.19-.58-2.34-1-3.45-.23-.59-.48-1.18-.75-1.74-.46-.96-1-1.89-1.59-2.77-.35-.53-.73-1.04-1.12-1.53-.7-.87-1.46-1.68-2.28-2.44-.46-.43-.95-.84-1.45-1.23-.86-.67-1.77-1.28-2.73-1.82-.55-.31-1.11-.6-1.69-.86-1.01-.46-2.05-.85-3.13-1.16-.61-.17-1.22-.32-1.85-.45-1.01-.2-2.03-.33-3.08-.39-.42-.02-.84-.04-1.27-.04-.21,0-.42,0-.63.01-1.08.03-2.14.14-3.17.31-.63.11-1.25.24-1.86.4-1.15.3-2.25.68-3.32,1.15-.58.25-1.15.53-1.7.84-1.12.61-2.19,1.31-3.18,2.1-.5.39-.98.81-1.44,1.24-.9.84-1.73,1.75-2.47,2.73-.38.5-.75,1.02-1.09,1.55-.47.74-.9,1.51-1.29,2.3-.28.57-.53,1.15-.75,1.74-.42,1.1-.76,2.24-1,3.42-.13.62-.23,1.24-.31,1.87-.11.89-.16,1.8-.16,2.72-.02.21-.02.42-.01.63"/>
  <path class="st1" d="M506.8,58.14c.17.06.86.19,2.08.4,1.22.21,1.93.32,2.13.32.22-.17.46-.44.7-.8.24-.37.41-.73.53-1.1l1.56-4.46c.11-.34.09-.64-.06-.91s-.5-.4-1.03-.4l-6.19-15.04c-.51-1.26-.98-2.11-1.41-2.53-.44-.42-.91-.69-1.41-.8l.08-.63c.31,0,.95.04,1.94.13.98.08,1.7.13,2.15.13.87,0,2.36-.08,4.46-.25l.08.63c-1.15.22-1.85.55-2.11.99-.25.44-.17,1.2.25,2.3l4.72,11.41,3.5-11.58c.28-.93.23-1.64-.15-2.13s-1.13-.82-2.25-.99l.08-.63c.14,0,.64.04,1.5.11.86.07,1.52.11,2,.11.42,0,1.06-.04,1.92-.13.86-.08,1.35-.13,1.5-.13l.08.67c-1.01.25-1.77.63-2.27,1.14-.51.51-.95,1.38-1.35,2.61l-6.32,20.01c-1.04,3.43-2.57,5.14-4.59,5.14-.42,0-.83-.09-1.22-.27-.39-.18-.73-.49-1.01-.93s-.45-.86-.51-1.29l.62-1.1ZM489.58,51.31l-.08-.67c.95-.17,1.61-.36,1.98-.57.36-.21.6-.55.69-1.01.1-.46.15-1.02.15-1.66v-10.57c0-1.01-.16-1.78-.48-2.32-.32-.53-.93-.9-1.83-1.1l.04-.63c.84-.08,1.88-.23,3.12-.44s2.13-.41,2.7-.61l.51.29c-.03.31-.07.95-.13,1.94-.06.98-.08,1.73-.08,2.23.37-.9.88-1.72,1.54-2.46s1.31-1.26,1.96-1.56c.65-.29,1.21-.44,1.68-.44.98,0,1.79.28,2.42.84s.95,1.31.95,2.23c0,.51-.12.99-.36,1.45-.24.46-.55.85-.95,1.16h-1.73s-.1-.4-.29-1.12c-.2-.72-.34-1.21-.44-1.5-.1-.28-.16-.45-.19-.51-.34-.08-.72-.1-1.14-.04-.51.03-1.07.26-1.68.69-.62.44-1.21,1.16-1.77,2.17v10.7c0,.81.15,1.4.46,1.77.31.36.73.6,1.26.72.53.11,1.17.22,1.9.34l-.08.67c-.14,0-.95-.04-2.42-.13-1.47-.08-2.46-.13-2.97-.13-.48,0-1.35.04-2.61.13-1.29.1-1.99.14-2.13.14ZM471.93,41.12c0,2.58.55,4.59,1.66,6.02s2.67,2.15,4.7,2.15c.67,0,1.34-.11,2-.34.66-.22,1.19-.48,1.58-.76v-9.44c0-3.88-1.57-5.81-4.72-5.81-1.68,0-2.98.72-3.87,2.17-.9,1.46-1.35,3.46-1.35,6.01ZM467.72,42.3c0-1.63.25-3.1.76-4.42s1.21-2.44,2.11-3.35c.9-.91,1.96-1.61,3.18-2.08,1.22-.48,2.52-.72,3.9-.72.84,0,1.64.1,2.38.29.74.2,1.35.45,1.83.76v-6.99c0-2.11-.94-3.29-2.82-3.54l.04-.63c.76-.03,1.83-.21,3.2-.55,1.38-.34,2.42-.66,3.12-.97l.51.29c-.14,1.68-.21,3.9-.21,6.66v19.92c0,.84.11,1.5.34,1.98.22.48,1.01.84,2.36,1.1l-.08.67c-.9,0-1.92.13-3.07.38s-2.12.58-2.91.97l-.46-.21v-2.86c-.65.79-1.47,1.45-2.46,1.98-1,.53-2.04.8-3.14.8-1.24,0-2.38-.22-3.43-.67s-1.96-1.1-2.72-1.94c-.76-.84-1.35-1.85-1.77-3.03-.45-1.19-.66-2.46-.66-3.84ZM445.1,51.31l-.08-.67c.95-.17,1.61-.36,1.98-.57.37-.21.59-.55.67-1.01.08-.46.13-1.02.13-1.66v-10.57c0-1.01-.16-1.78-.48-2.32-.32-.53-.93-.9-1.83-1.1l.04-.63c.84-.08,1.88-.23,3.12-.44s2.13-.41,2.7-.61l.51.29c-.14.9-.21,1.81-.21,2.74,1.26-1.1,2.44-1.87,3.52-2.34,1.08-.46,2.01-.7,2.8-.7,2.02,0,3.49.57,4.4,1.71.91,1.14,1.37,2.86,1.37,5.16v8.8c0,.95.1,1.64.29,2.04.2.41.51.68.95.82s.98.27,1.62.38l-.04.67c-.14,0-.84-.04-2.11-.13-1.26-.08-2.15-.13-2.65-.13-.53,0-1.35.04-2.44.13-1.1.08-1.76.13-1.98.13l-.08-.67c1.18-.2,1.91-.46,2.19-.8s.42-1.15.42-2.44v-8.21c0-1.8-.32-3.09-.97-3.88s-1.68-1.18-3.12-1.18c-.65,0-1.36.15-2.15.44s-1.46.6-2.02.91v11.92c0,.98.08,1.67.23,2.06.15.39.44.66.86.8.42.14.93.27,1.52.38l-.04.67c-.22,0-.91-.04-2.04-.13-1.14-.08-1.94-.13-2.42-.13s-1.33.04-2.57.13c-1.26.1-1.95.14-2.09.14ZM432,38.59h8c0-1.85-.29-3.27-.88-4.25s-1.46-1.47-2.61-1.47c-1.24,0-2.25.51-3.05,1.52-.81,1-1.29,2.41-1.46,4.2ZM427.87,41.67c0-1.4.22-2.72.67-3.96s1.08-2.3,1.9-3.18c.81-.88,1.78-1.57,2.89-2.06,1.11-.49,2.3-.74,3.56-.74,2.27,0,4.02.67,5.22,2.02,1.21,1.35,1.75,3.26,1.64,5.73l-11.84.17-.04,1.43c0,2.5.6,4.44,1.79,5.83,1.19,1.39,2.79,2.08,4.78,2.08,1.21,0,2.23-.18,3.05-.55.83-.37,1.61-.95,2.34-1.77l.46.38c-.28.62-.69,1.29-1.24,2.02-.55.73-1.24,1.31-2.08,1.75s-1.58.7-2.21.8c-.63.1-1.17.15-1.62.15-1.38,0-2.64-.22-3.79-.67s-2.13-1.11-2.95-1.98c-.81-.87-1.44-1.94-1.87-3.22-.44-1.28-.66-2.69-.66-4.23ZM396.58,51.31l-.08-.76c1.26-.17,2.13-.35,2.61-.55.48-.2.81-.51,1.01-.93.2-.42.29-1.05.29-1.9v-20.05c0-.65-.08-1.21-.23-1.71-.15-.49-.49-.85-1.01-1.07-.52-.22-1.37-.42-2.55-.59l.08-.76c.22,0,.95.04,2.17.11,1.22.07,2.09.11,2.61.13.52.01.85.02.99.02.2,0,.58-.01,1.16-.02.58-.01,1.46-.06,2.65-.13s1.89-.11,2.08-.11l.08.76c-1.21.17-2.08.37-2.61.59s-.88.58-1.05,1.07c-.17.49-.25,1.06-.25,1.71v8.68h14.03v-8.68c0-.65-.08-1.21-.23-1.71-.15-.49-.49-.85-1.01-1.07-.52-.22-1.37-.42-2.55-.59l.08-.76c.22,0,.95.04,2.17.11,1.22.07,2.09.11,2.61.13.52.01.85.02.99.02s.48-.01,1.01-.02c.53-.01,1.43-.06,2.67-.13,1.25-.07,1.99-.11,2.21-.11l.08.76c-1.21.17-2.08.37-2.61.59s-.88.58-1.05,1.07c-.17.49-.25,1.06-.25,1.71v20.05c0,.65.08,1.21.25,1.71.17.49.52.85,1.05,1.07s1.4.42,2.61.59l-.08.76c-.22,0-.96-.03-2.21-.11-1.25-.07-2.14-.11-2.67-.13-.53-.01-.87-.02-1.01-.02s-.47.01-.99.02c-.52.01-1.41.06-2.67.13s-2.01.11-2.23.11l-.08-.76c1.26-.17,2.13-.35,2.61-.55.48-.2.81-.51,1.01-.93.2-.42.29-1.05.29-1.9v-10.02h-14.03v10.02c0,.65.08,1.21.25,1.71.17.49.52.85,1.05,1.07s1.4.42,2.61.59l-.08.76c-.22,0-.96-.03-2.21-.11-1.25-.07-2.14-.11-2.67-.13-.53-.01-.87-.02-1.01-.02s-.47.01-.99.02c-.52.01-1.41.06-2.67.13-1.27.1-2.01.13-2.23.13ZM380.32,49.29c0-.67.25-1.26.74-1.75s1.06-.74,1.71-.74,1.26.25,1.75.74.74,1.07.74,1.75-.25,1.25-.74,1.73-1.07.72-1.75.72-1.21-.25-1.71-.74c-.5-.49-.74-1.06-.74-1.71ZM360.94,39.31h8.17l-4.13-11.84-4.04,11.84ZM352.73,51.31l-.08-.76c1.24-.25,2.15-.65,2.74-1.18s1.1-1.4,1.52-2.61l6.91-18.91c.48-1.32.48-2.3.02-2.93-.46-.63-1.34-1.02-2.63-1.16l.08-.72,3.88.17c.9,0,1.7-.04,2.4-.13l8.59,23.55c.56,1.6,1.14,2.62,1.73,3.05.59.44,1.33.74,2.23.91l-.08.72c-.11,0-.98-.04-2.59-.13-1.61-.08-2.72-.13-3.31-.13s-1.58.04-2.97.13c-1.39.08-2.17.13-2.34.13l-.08-.72c1.6-.2,2.6-.55,3.01-1.07.41-.52.41-1.36.02-2.51l-2.23-6.4h-9.01l-2.11,6.19c-.45,1.29-.48,2.18-.11,2.67.38.49,1.47.86,3.26,1.12l-.08.72c-.08,0-.78-.04-2.08-.13-1.31-.08-2.23-.13-2.76-.13-.44.01-1.74.1-3.93.26ZM336.09,36.32c0-.84-.09-1.47-.27-1.9-.18-.42-.48-.71-.88-.86-.41-.15-.85-.26-1.33-.32v-.8c.84-.08,1.54-.25,2.11-.48.56-.24,1.03-.67,1.41-1.28.38-.62.77-1.91,1.16-3.87h1.77l-.17,5.52h5.69v1.35h-5.73v12.72c0,.98.25,1.76.76,2.34s1.19.86,2.06.86,1.66-.29,2.44-.88l.42.59c-1.26,1.66-2.92,2.49-4.97,2.49-1.4,0-2.5-.39-3.29-1.18-.79-.79-1.18-1.95-1.18-3.5v-10.8ZM318.27,51.31l-.08-.67c.95-.17,1.61-.36,1.98-.57.37-.21.6-.55.7-1.01.1-.46.15-1.02.15-1.66v-10.57c0-1.01-.16-1.78-.48-2.32-.32-.53-.93-.9-1.83-1.1l.04-.63c.84-.08,1.88-.23,3.12-.44s2.13-.41,2.7-.61l.51.29c-.03.31-.07.95-.13,1.94-.06.98-.08,1.73-.08,2.23.37-.9.88-1.72,1.54-2.46s1.31-1.26,1.96-1.56c.65-.29,1.21-.44,1.68-.44.98,0,1.79.28,2.42.84s.95,1.31.95,2.23c0,.51-.12.99-.36,1.45-.24.46-.55.85-.95,1.16h-1.73s-.1-.4-.29-1.12c-.2-.72-.34-1.21-.44-1.5-.1-.28-.16-.45-.19-.51-.34-.08-.72-.1-1.14-.04-.51.03-1.07.26-1.68.69-.62.44-1.21,1.16-1.77,2.17v10.7c0,.81.15,1.4.46,1.77.31.36.73.6,1.26.72.53.11,1.17.22,1.9.34l-.08.67c-.14,0-.95-.04-2.42-.13-1.47-.08-2.46-.13-2.97-.13-.48,0-1.35.04-2.61.13-1.29.1-2,.14-2.14.14ZM305.22,38.59h8c0-1.85-.29-3.27-.88-4.25s-1.46-1.47-2.61-1.47c-1.24,0-2.25.51-3.05,1.52-.81,1-1.3,2.41-1.46,4.2ZM301.09,41.67c0-1.4.22-2.72.67-3.96s1.08-2.3,1.9-3.18c.81-.88,1.78-1.57,2.89-2.06,1.11-.49,2.3-.74,3.56-.74,2.27,0,4.02.67,5.22,2.02,1.21,1.35,1.75,3.26,1.64,5.73l-11.84.17-.04,1.43c0,2.5.6,4.44,1.79,5.83,1.19,1.39,2.79,2.08,4.78,2.08,1.21,0,2.23-.18,3.05-.55.83-.37,1.61-.95,2.34-1.77l.46.38c-.28.62-.69,1.29-1.24,2.02-.55.73-1.24,1.31-2.08,1.75s-1.58.7-2.21.8c-.63.1-1.17.15-1.62.15-1.38,0-2.64-.22-3.79-.67s-2.13-1.11-2.95-1.98c-.81-.87-1.44-1.94-1.87-3.22-.44-1.28-.66-2.69-.66-4.23ZM284.87,44.7c0,1.91.36,3.36,1.07,4.34.72.98,1.85,1.47,3.39,1.47,1.71,0,3.05-.71,4-2.13s1.43-3.45,1.43-6.09-.58-4.61-1.75-6-2.75-2.08-4.74-2.08c-.36,0-.87.06-1.52.17-.65.11-1.28.34-1.9.67v9.65h.02ZM280.45,51.99c.39-2.02.59-5.05.59-9.1v-17.1c0-2.11-.94-3.29-2.82-3.54l.04-.63c.76-.03,1.83-.21,3.2-.55,1.38-.34,2.41-.66,3.12-.97l.51.29c-.14,1.68-.21,3.9-.21,6.66v7.24c.59-.79,1.39-1.41,2.4-1.87,1.01-.46,2.05-.7,3.12-.7,2.58,0,4.66.85,6.23,2.55,1.57,1.7,2.36,4.01,2.36,6.93,0,1.69-.25,3.2-.76,4.55-.51,1.35-1.21,2.46-2.11,3.35-.9.88-1.95,1.55-3.16,2s-2.51.67-3.92.67c-2.61,0-4.75-.83-6.4-2.49-.62,1.38-1.12,2.33-1.52,2.86l-.67-.15ZM262.46,41.71c0,2.72.52,4.89,1.56,6.51,1.04,1.61,2.39,2.42,4.04,2.42,1.74,0,3.06-.75,3.96-2.25s1.35-3.7,1.35-6.59c0-2.72-.51-4.89-1.54-6.51-1.02-1.61-2.38-2.42-4.06-2.42s-3.03.75-3.94,2.25c-.91,1.5-1.37,3.7-1.37,6.59ZM258.21,41.84c0-1.52.27-2.91.8-4.19s1.26-2.35,2.17-3.22,1.96-1.54,3.14-2c1.18-.46,2.39-.7,3.62-.7,1.32,0,2.56.2,3.73.59,1.17.39,2.2,1,3.1,1.81s1.6,1.85,2.11,3.12c.51,1.26.76,2.72.76,4.38,0,1.54-.27,2.96-.8,4.23-.53,1.28-1.26,2.35-2.17,3.22s-1.95,1.54-3.12,2c-1.17.46-2.37.69-3.6.69-1.32,0-2.57-.2-3.75-.59-1.18-.39-2.22-1-3.12-1.81s-1.6-1.86-2.11-3.14c-.51-1.27-.76-2.74-.76-4.39ZM241.19,36.78h1.73c.7,0,1.4-.13,2.11-.38.7-.25,1.31-.65,1.81-1.18.51-.53.89-1.18,1.16-1.94s.4-1.6.4-2.53c0-1.32-.25-2.5-.74-3.54s-1.19-1.8-2.09-2.27c-.9-.48-1.83-.72-2.78-.72l-1.6.04v12.52ZM233.32,51.31l-.08-.76c1.26-.17,2.13-.35,2.61-.55.48-.2.81-.51,1.01-.93.2-.42.29-1.05.29-1.9v-20.05c0-.65-.08-1.21-.23-1.71-.15-.49-.48-.85-.99-1.07-.51-.22-1.36-.42-2.57-.59l.08-.76c.22,0,.95.04,2.17.11,1.22.07,2.09.11,2.61.13.52.01.85.02.99.02l4.51-.25c2.78,0,4.96.57,6.53,1.71,1.57,1.14,2.36,2.9,2.36,5.29,0,.9-.2,1.81-.59,2.74-.39.93-1.09,1.76-2.09,2.49-1,.73-2.04,1.21-3.14,1.43.62.22,1.24.64,1.87,1.24.63.6,1.19,1.25,1.68,1.94s.92,1.32,1.28,1.9c.37.58.74,1.18,1.12,1.81s.62,1.05.74,1.24c.95,1.57,1.9,2.83,2.84,3.77s2.03,1.62,3.26,2.04l-.13.72c-1.54.06-2.93-.03-4.15-.27s-2.3-.72-3.24-1.43c-.94-.72-1.92-1.99-2.93-3.81-1.77-3.31-3.15-5.45-4.15-6.42s-2-1.45-3.01-1.45h-.8v9.27c0,.65.08,1.21.25,1.71.17.49.52.85,1.05,1.07s1.42.42,2.65.59l-.08.76c-.25,0-1-.03-2.25-.11-1.25-.07-2.13-.11-2.65-.13-.52-.01-.85-.02-.99-.02s-.47.01-.99.02c-.52.01-1.4.06-2.65.13-1.23.05-1.97.08-2.19.08ZM211.16,38.59h8c0-1.85-.29-3.27-.88-4.25s-1.46-1.47-2.61-1.47c-1.24,0-2.25.51-3.05,1.52-.81,1-1.29,2.41-1.46,4.2ZM207.03,41.67c0-1.4.22-2.72.67-3.96s1.08-2.3,1.9-3.18c.81-.88,1.78-1.57,2.89-2.06,1.11-.49,2.3-.74,3.56-.74,2.27,0,4.02.67,5.22,2.02,1.21,1.35,1.75,3.26,1.64,5.73l-11.84.17-.04,1.43c0,2.5.6,4.44,1.79,5.83,1.19,1.39,2.79,2.08,4.78,2.08,1.21,0,2.23-.18,3.05-.55.83-.37,1.61-.95,2.34-1.77l.46.38c-.28.62-.69,1.29-1.24,2.02-.55.73-1.24,1.31-2.08,1.75s-1.58.7-2.21.8c-.63.1-1.17.15-1.62.15-1.38,0-2.64-.22-3.79-.67s-2.13-1.11-2.95-1.98c-.81-.87-1.44-1.94-1.87-3.22-.44-1.28-.66-2.69-.66-4.23ZM183.87,51.31l-.08-.67c.95-.17,1.61-.36,1.98-.57.37-.21.6-.55.69-1.01.1-.46.15-1.02.15-1.66v-21.61c0-2.11-.94-3.29-2.82-3.54l.04-.63c.76-.03,1.83-.21,3.22-.55s2.42-.66,3.1-.97l.55.29c-.17,2.02-.25,4.24-.25,6.66v7.71c1.24-1.07,2.42-1.84,3.56-2.32s2.1-.72,2.89-.72c2.11,0,3.66.56,4.65,1.68,1,1.12,1.5,2.85,1.5,5.18v8.8c0,.98.09,1.67.27,2.06.18.39.49.66.93.8.44.14.98.27,1.62.38l-.08.67c-.2,0-.88-.04-2.06-.13-1.18-.08-2.04-.13-2.57-.13s-1.36.04-2.49.13c-1.12.08-1.78.13-1.98.13l-.04-.67c1.15-.2,1.87-.47,2.15-.82s.42-1.16.42-2.42v-8.21c0-1.85-.37-3.16-1.1-3.92-.73-.76-1.84-1.14-3.33-1.14-.65,0-1.39.14-2.23.42s-1.54.59-2.11.93v11.92c0,1.26.13,2.07.4,2.42.27.35.99.63,2.17.82l-.04.67c-.22,0-.9-.04-2.02-.13-1.12-.08-1.92-.13-2.4-.13s-1.34.04-2.59.13c-1.27.11-1.96.15-2.1.15ZM165.29,50.56c1.46-.17,2.48-.34,3.07-.51.59-.17,1.03-.46,1.31-.86.28-.41.42-1,.42-1.79v-23.12l-3.03.21c-1.07.08-1.93.37-2.59.86s-1.19,1.17-1.58,2.02c-.39.86-.73,1.83-1.01,2.93l-.84-.08c.08-.7.18-1.88.27-3.54.1-1.66.15-2.89.15-3.71,5.05.22,8.63.34,10.74.34,1.49,0,3.54-.04,6.17-.13,2.63-.08,4.49-.15,5.58-.21-.53,3.51-.81,5.93-.84,7.25h-.93c-.11-1.21-.3-2.23-.55-3.08-.25-.84-.65-1.48-1.18-1.92s-1.46-.7-2.78-.78l-3.45-.17v23.12c0,.79.14,1.38.42,1.79s.72.7,1.31.86c.59.17,1.61.34,3.07.51l-.08.76h-.21c-.08,0-1.03-.04-2.84-.13-1.81-.08-3.05-.13-3.73-.13-.31,0-.82.01-1.54.04-.72.03-1.74.07-3.07.13s-2.06.08-2.17.08l-.09-.74Z"/>
  <rect class="st1" x="163.33" y="82.67" width="55.76" height="2.11"/>
  <rect class="st1" x="474.69" y="82.67" width="45.47" height="2.11"/>
  <path class="st1" d="M446.24,92.91v-17.86h2.78l10.26,14.79v-14.79h2.29v17.86h-2.78l-10.26-14.79v14.79h-2.29ZM419.08,83.99c0,.99.18,1.92.55,2.8.37.88.87,1.64,1.5,2.29s1.37,1.17,2.22,1.55c.84.38,1.75.57,2.73.57s1.86-.19,2.72-.57c.85-.38,1.6-.9,2.23-1.55s1.13-1.41,1.5-2.29.55-1.81.55-2.8-.18-1.95-.55-2.83c-.37-.88-.87-1.64-1.5-2.29s-1.38-1.17-2.23-1.55c-.85-.38-1.76-.57-2.72-.57s-1.88.19-2.73.57c-.84.38-1.58.9-2.22,1.55-.63.65-1.13,1.41-1.5,2.29-.37.88-.55,1.82-.55,2.83ZM426.07,93.27c-1.28,0-2.49-.24-3.61-.73-1.12-.49-2.1-1.15-2.95-2s-1.51-1.83-2-2.95c-.49-1.12-.73-2.32-.73-3.61s.24-2.49.73-3.62c.49-1.13,1.15-2.12,2-2.96.84-.84,1.83-1.51,2.95-2,1.12-.49,2.32-.73,3.61-.73s2.49.24,3.61.73c1.12.49,2.1,1.15,2.94,2,.84.84,1.5,1.83,1.99,2.96s.73,2.33.73,3.62-.24,2.49-.73,3.61c-.49,1.12-1.15,2.1-1.99,2.95-.84.84-1.82,1.51-2.94,2-1.13.49-2.33.73-3.61.73ZM403.63,92.91v-17.86h2.29v17.86h-2.29ZM393.59,75.05v2.07h-4.75v15.79h-2.27v-15.79h-4.75v-2.07h11.77ZM368.72,85.94l-3.24-8.06-3.26,8.06h6.5ZM357.12,92.91l7.26-17.86h2.17l7.26,17.86h-2.31l-2.02-4.99h-8.02l-2.02,4.99h-2.32ZM336.63,90.84h2.31c2.03,0,3.7-.62,5.01-1.86s1.96-2.9,1.96-4.98-.65-3.74-1.96-4.99-2.96-1.88-4.96-1.88h-2.36v13.71h0ZM334.36,75.05h4.78c1.32,0,2.53.22,3.65.67s2.09,1.06,2.9,1.85,1.45,1.73,1.9,2.83c.46,1.1.68,2.29.68,3.59s-.23,2.49-.68,3.58c-.45,1.09-1.09,2.03-1.9,2.83s-1.78,1.41-2.9,1.85-2.34.66-3.65.66h-4.78v-17.86ZM307.22,92.91v-17.86h2.78l10.26,14.79v-14.79h2.29v17.86h-2.78l-10.26-14.79v14.79h-2.29ZM282.66,75.05h2.29v11.82c0,1.32.4,2.37,1.19,3.15.8.79,1.78,1.18,2.95,1.18s2.1-.4,2.9-1.19c.8-.8,1.19-1.85,1.19-3.17v-11.79h2.29v11.82c0,.94-.17,1.8-.5,2.58s-.79,1.45-1.38,2.02c-.58.57-1.26,1.01-2.03,1.33-.77.32-1.6.48-2.47.48-1.79,0-3.31-.6-4.56-1.79s-1.88-2.73-1.88-4.62v-11.82h0ZM255.69,83.99c0,.99.18,1.92.55,2.8.37.88.86,1.64,1.5,2.29.63.65,1.37,1.17,2.22,1.55.84.38,1.75.57,2.73.57s1.86-.19,2.72-.57c.85-.38,1.6-.9,2.23-1.55s1.13-1.41,1.5-2.29.55-1.81.55-2.8-.18-1.95-.55-2.83c-.37-.88-.86-1.64-1.5-2.29-.63-.65-1.38-1.17-2.23-1.55-.85-.38-1.76-.57-2.72-.57s-1.88.19-2.73.57c-.84.38-1.58.9-2.22,1.55-.63.65-1.13,1.41-1.5,2.29-.36.88-.55,1.82-.55,2.83ZM262.69,93.27c-1.28,0-2.49-.24-3.61-.73-1.12-.49-2.1-1.15-2.95-2s-1.51-1.83-2-2.95c-.49-1.12-.73-2.32-.73-3.61s.24-2.49.73-3.62c.49-1.13,1.15-2.12,2-2.96.84-.84,1.83-1.51,2.95-2,1.12-.49,2.32-.73,3.61-.73s2.49.24,3.61.73c1.12.49,2.1,1.15,2.94,2,.84.84,1.5,1.83,1.99,2.96s.73,2.33.73,3.62-.24,2.49-.73,3.61c-.49,1.12-1.15,2.1-1.99,2.95-.84.84-1.82,1.51-2.94,2-1.13.49-2.33.73-3.61.73ZM234.35,75.05h9.38v2.07h-7.09v5.73h6.33v2.07h-6.33v7.99h-2.29v-17.86Z"/>
  <rect class="st2" x="137.79" y="5.62" width="1.76" height="107.74"/>
</svg>